<svg width="400" height="220" xmlns="http://www.w3.org/2000/svg">
  <rect width="400" height="220" fill="#ffffff"/>
  <!-- Table Header -->
  <rect x="50" y="20" width="100" height="30" fill="#2196F3" stroke="#000"/>
  <text x="100" y="40" font-family="Arial" font-size="14" font-weight="bold" fill="#fff" text-anchor="middle">Floor</text>
  <rect x="150" y="20" width="100" height="30" fill="#2196F3" stroke="#000"/>
  <text x="200" y="40" font-family="Arial" font-size="14" font-weight="bold" fill="#fff" text-anchor="middle">Flat P</text>
  <rect x="250" y="20" width="100" height="30" fill="#2196F3" stroke="#000"/>
  <text x="300" y="40" font-family="Arial" font-size="14" font-weight="bold" fill="#fff" text-anchor="middle">Flat Q</text>
  <!-- Rows -->
  <rect x="50" y="50" width="100" height="30" fill="#f2f2f2" stroke="#000"/>
  <text x="100" y="70" font-family="Arial" font-size="14" text-anchor="middle">5</text>
  <rect x="150" y="50" width="100" height="30" fill="#fff" stroke="#000"/>
  <text x="200" y="70" font-family="Arial" font-size="14" text-anchor="middle">J</text>
  <rect x="250" y="50" width="100" height="30" fill="#fff" stroke="#000"/>
  <text x="300" y="70" font-family="Arial" font-size="14" text-anchor="middle">D</text>
  
  <rect x="50" y="80" width="100" height="30" fill="#f2f2f2" stroke="#000"/>
  <text x="100" y="100" font-family="Arial" font-size="14" text-anchor="middle">4</text>
  <rect x="150" y="80" width="100" height="30" fill="#fff" stroke="#000"/>
  <text x="200" y="100" font-family="Arial" font-size="14" text-anchor="middle">A</text>
  <rect x="250" y="80" width="100" height="30" fill="#fff" stroke="#000"/>
  <text x="300" y="100" font-family="Arial" font-size="14" text-anchor="middle">G</text>
  
  <rect x="50" y="110" width="100" height="30" fill="#f2f2f2" stroke="#000"/>
  <text x="100" y="130" font-family="Arial" font-size="14" text-anchor="middle">3</text>
  <rect x="150" y="110" width="100" height="30" fill="#fff" stroke="#000"/>
  <text x="200" y="130" font-family="Arial" font-size="14" text-anchor="middle">H</text>
  <rect x="250" y="110" width="100" height="30" fill="#fff" stroke="#000"/>
  <text x="300" y="130" font-family="Arial" font-size="14" text-anchor="middle">E</text>
  
  <rect x="50" y="140" width="100" height="30" fill="#f2f2f2" stroke="#000"/>
  <text x="100" y="160" font-family="Arial" font-size="14" text-anchor="middle">2</text>
  <rect x="150" y="140" width="100" height="30" fill="#fff" stroke="#000"/>
  <text x="200" y="160" font-family="Arial" font-size="14" text-anchor="middle">B</text>
  <rect x="250" y="140" width="100" height="30" fill="#fff" stroke="#000"/>
  <text x="300" y="160" font-family="Arial" font-size="14" text-anchor="middle">I</text>
  
  <rect x="50" y="170" width="100" height="30" fill="#f2f2f2" stroke="#000"/>
  <text x="100" y="190" font-family="Arial" font-size="14" text-anchor="middle">1</text>
  <rect x="150" y="170" width="100" height="30" fill="#fff" stroke="#000"/>
  <text x="200" y="190" font-family="Arial" font-size="14" text-anchor="middle">F</text>
  <rect x="250" y="170" width="100" height="30" fill="#fff" stroke="#000"/>
  <text x="300" y="190" font-family="Arial" font-size="14" text-anchor="middle">C</text>
</svg>
