<svg xmlns="http://www.w3.org/2000/svg" viewBox="0 0 600 200">
    <rect width="100%" height="100%" fill="#ffffff" />
    <path d="M 40 100 L 560 100" stroke="#333333" stroke-width="2"/>
    <path d="M 40 95 L 40 105" stroke="#333333" stroke-width="2"/>
    <path d="M 110 95 L 110 105" stroke="#333333" stroke-width="2"/>
    <path d="M 180 95 L 180 105" stroke="#333333" stroke-width="2"/>
    <path d="M 250 95 L 250 105" stroke="#333333" stroke-width="2"/>
    <path d="M 320 95 L 320 105" stroke="#333333" stroke-width="2"/>
    <path d="M 390 95 L 390 105" stroke="#333333" stroke-width="2"/>
    <path d="M 460 95 L 460 105" stroke="#333333" stroke-width="2"/>
    <path d="M 530 95 L 530 105" stroke="#333333" stroke-width="2"/>
    
    <text x="40" y="80" font-family="Arial" font-size="14" font-weight="bold" text-anchor="middle">T (S)</text>
    <text x="40" y="130" font-family="Arial" font-size="12" fill="#0066cc" text-anchor="middle">Vans</text>
    
    <text x="110" y="80" font-family="Arial" font-size="14" font-weight="bold" text-anchor="middle">P (S)</text>
    <text x="110" y="130" font-family="Arial" font-size="12" fill="#0066cc" text-anchor="middle">Nike</text>
    
    <text x="180" y="80" font-family="Arial" font-size="14" font-weight="bold" text-anchor="middle">Q (N)</text>
    <text x="180" y="130" font-family="Arial" font-size="12" fill="#0066cc" text-anchor="middle">Fila</text>
    
    <text x="250" y="80" font-family="Arial" font-size="14" font-weight="bold" text-anchor="middle">O (N)</text>
    <text x="250" y="130" font-family="Arial" font-size="12" fill="#0066cc" text-anchor="middle">Adidas</text>
    
    <text x="320" y="80" font-family="Arial" font-size="14" font-weight="bold" text-anchor="middle">N (N)</text>
    <text x="320" y="130" font-family="Arial" font-size="12" fill="#0066cc" text-anchor="middle">Puma</text>
    
    <text x="390" y="80" font-family="Arial" font-size="14" font-weight="bold" text-anchor="middle">M (S)</text>
    <text x="390" y="130" font-family="Arial" font-size="12" fill="#0066cc" text-anchor="middle">Reebok</text>
    
    <text x="460" y="80" font-family="Arial" font-size="14" font-weight="bold" text-anchor="middle">S (S)</text>
    <text x="460" y="130" font-family="Arial" font-size="12" fill="#0066cc" text-anchor="middle">Asics</text>
    
    <text x="530" y="80" font-family="Arial" font-size="14" font-weight="bold" text-anchor="middle">R (N)</text>
    <text x="530" y="130" font-family="Arial" font-size="12" fill="#0066cc" text-anchor="middle">U.Armour</text>
</svg>